<mxfile host="app.diagrams.net" modified="2021-02-04T04:10:33.925Z" agent="5.0 (Windows NT 6.2; Win64; x64) AppleWebKit/537.36 (KHTML, like Gecko) Chrome/83.0.4103.61 Safari/537.36" etag="754w5QNI8Fslh9JOJ7vh" version="14.2.9" type="github">
  <diagram id="kXE4NX7Cac7EloAQ-Q5T" name="Page-1">
    <mxGraphModel dx="1212" dy="635" grid="1" gridSize="10" guides="1" tooltips="1" connect="1" arrows="1" fold="1" page="1" pageScale="1" pageWidth="827" pageHeight="1169" math="0" shadow="0">
      <root>
        <mxCell id="0" />
        <mxCell id="1" parent="0" />
        <mxCell id="5rTCIby2H79D7bc2Stlg-10" style="edgeStyle=orthogonalEdgeStyle;rounded=0;orthogonalLoop=1;jettySize=auto;html=1;" edge="1" parent="1" source="5rTCIby2H79D7bc2Stlg-6" target="5rTCIby2H79D7bc2Stlg-8">
          <mxGeometry relative="1" as="geometry" />
        </mxCell>
        <mxCell id="5rTCIby2H79D7bc2Stlg-6" value="新用户绑定SA" style="rounded=1;whiteSpace=wrap;html=1;fillColor=#d5e8d4;strokeColor=#82b366;" vertex="1" parent="1">
          <mxGeometry x="260" y="100" width="110" height="40" as="geometry" />
        </mxCell>
        <mxCell id="5rTCIby2H79D7bc2Stlg-11" style="edgeStyle=orthogonalEdgeStyle;rounded=0;orthogonalLoop=1;jettySize=auto;html=1;" edge="1" parent="1" source="5rTCIby2H79D7bc2Stlg-7" target="5rTCIby2H79D7bc2Stlg-8">
          <mxGeometry relative="1" as="geometry" />
        </mxCell>
        <mxCell id="5rTCIby2H79D7bc2Stlg-7" value="旧用户绑定SA" style="rounded=1;whiteSpace=wrap;html=1;fillColor=#f8cecc;strokeColor=#b85450;" vertex="1" parent="1">
          <mxGeometry x="260" y="170" width="110" height="40" as="geometry" />
        </mxCell>
        <mxCell id="5rTCIby2H79D7bc2Stlg-12" style="edgeStyle=orthogonalEdgeStyle;rounded=0;orthogonalLoop=1;jettySize=auto;html=1;" edge="1" parent="1" source="5rTCIby2H79D7bc2Stlg-8" target="5rTCIby2H79D7bc2Stlg-9">
          <mxGeometry relative="1" as="geometry" />
        </mxCell>
        <mxCell id="5rTCIby2H79D7bc2Stlg-8" value="卡列表页面" style="rounded=1;whiteSpace=wrap;html=1;fillColor=#d5e8d4;strokeColor=#82b366;" vertex="1" parent="1">
          <mxGeometry x="420" y="130" width="110" height="40" as="geometry" />
        </mxCell>
        <mxCell id="5rTCIby2H79D7bc2Stlg-17" value="YES" style="edgeStyle=orthogonalEdgeStyle;rounded=0;orthogonalLoop=1;jettySize=auto;html=1;entryX=0.5;entryY=0;entryDx=0;entryDy=0;exitX=0.5;exitY=1;exitDx=0;exitDy=0;" edge="1" parent="1" source="5rTCIby2H79D7bc2Stlg-37" target="5rTCIby2H79D7bc2Stlg-13">
          <mxGeometry relative="1" as="geometry" />
        </mxCell>
        <mxCell id="5rTCIby2H79D7bc2Stlg-21" style="edgeStyle=orthogonalEdgeStyle;rounded=0;orthogonalLoop=1;jettySize=auto;html=1;entryX=0.5;entryY=0;entryDx=0;entryDy=0;exitX=0;exitY=0.5;exitDx=0;exitDy=0;" edge="1" parent="1" source="5rTCIby2H79D7bc2Stlg-37" target="5rTCIby2H79D7bc2Stlg-14">
          <mxGeometry relative="1" as="geometry" />
        </mxCell>
        <mxCell id="5rTCIby2H79D7bc2Stlg-22" style="edgeStyle=orthogonalEdgeStyle;rounded=0;orthogonalLoop=1;jettySize=auto;html=1;entryX=0.5;entryY=0;entryDx=0;entryDy=0;exitX=0;exitY=0.5;exitDx=0;exitDy=0;" edge="1" parent="1" source="5rTCIby2H79D7bc2Stlg-37" target="5rTCIby2H79D7bc2Stlg-15">
          <mxGeometry relative="1" as="geometry" />
        </mxCell>
        <mxCell id="5rTCIby2H79D7bc2Stlg-38" style="edgeStyle=orthogonalEdgeStyle;rounded=0;orthogonalLoop=1;jettySize=auto;html=1;" edge="1" parent="1" source="5rTCIby2H79D7bc2Stlg-9" target="5rTCIby2H79D7bc2Stlg-37">
          <mxGeometry relative="1" as="geometry" />
        </mxCell>
        <mxCell id="5rTCIby2H79D7bc2Stlg-9" value="卡列表确认页面" style="rounded=1;whiteSpace=wrap;html=1;fillColor=#f8cecc;strokeColor=#b85450;" vertex="1" parent="1">
          <mxGeometry x="420" y="210" width="110" height="40" as="geometry" />
        </mxCell>
        <mxCell id="5rTCIby2H79D7bc2Stlg-36" style="edgeStyle=orthogonalEdgeStyle;rounded=0;orthogonalLoop=1;jettySize=auto;html=1;entryX=1;entryY=0.5;entryDx=0;entryDy=0;exitX=0.5;exitY=1;exitDx=0;exitDy=0;" edge="1" parent="1" source="5rTCIby2H79D7bc2Stlg-13" target="5rTCIby2H79D7bc2Stlg-16">
          <mxGeometry relative="1" as="geometry">
            <Array as="points">
              <mxPoint x="635" y="515" />
            </Array>
          </mxGeometry>
        </mxCell>
        <mxCell id="5rTCIby2H79D7bc2Stlg-13" value="绑定成功" style="rounded=1;whiteSpace=wrap;html=1;fillColor=#d5e8d4;strokeColor=#82b366;" vertex="1" parent="1">
          <mxGeometry x="580" y="380" width="110" height="40" as="geometry" />
        </mxCell>
        <mxCell id="5rTCIby2H79D7bc2Stlg-25" style="edgeStyle=orthogonalEdgeStyle;rounded=0;orthogonalLoop=1;jettySize=auto;html=1;entryX=0.5;entryY=0;entryDx=0;entryDy=0;" edge="1" parent="1" source="5rTCIby2H79D7bc2Stlg-14" target="5rTCIby2H79D7bc2Stlg-19">
          <mxGeometry relative="1" as="geometry" />
        </mxCell>
        <mxCell id="5rTCIby2H79D7bc2Stlg-14" value="部分绑定成功" style="rounded=1;whiteSpace=wrap;html=1;fillColor=#f8cecc;strokeColor=#b85450;" vertex="1" parent="1">
          <mxGeometry x="290" y="350" width="110" height="40" as="geometry" />
        </mxCell>
        <mxCell id="5rTCIby2H79D7bc2Stlg-23" style="edgeStyle=orthogonalEdgeStyle;rounded=0;orthogonalLoop=1;jettySize=auto;html=1;entryX=0.5;entryY=0;entryDx=0;entryDy=0;" edge="1" parent="1" source="5rTCIby2H79D7bc2Stlg-15" target="5rTCIby2H79D7bc2Stlg-19">
          <mxGeometry relative="1" as="geometry" />
        </mxCell>
        <mxCell id="5rTCIby2H79D7bc2Stlg-15" value="全部绑定失败" style="rounded=1;whiteSpace=wrap;html=1;fillColor=#f8cecc;strokeColor=#b85450;" vertex="1" parent="1">
          <mxGeometry x="130" y="350" width="110" height="40" as="geometry" />
        </mxCell>
        <mxCell id="5rTCIby2H79D7bc2Stlg-42" style="edgeStyle=orthogonalEdgeStyle;rounded=0;orthogonalLoop=1;jettySize=auto;html=1;fontColor=#FFFFFF;entryX=0.5;entryY=0;entryDx=0;entryDy=0;" edge="1" parent="1" source="5rTCIby2H79D7bc2Stlg-16" target="5rTCIby2H79D7bc2Stlg-41">
          <mxGeometry relative="1" as="geometry">
            <mxPoint x="485" y="660" as="targetPoint" />
          </mxGeometry>
        </mxCell>
        <mxCell id="5rTCIby2H79D7bc2Stlg-16" value="MGM邀请码页面" style="rounded=1;whiteSpace=wrap;html=1;fillColor=#d5e8d4;strokeColor=#82b366;" vertex="1" parent="1">
          <mxGeometry x="422.5" y="495" width="110" height="40" as="geometry" />
        </mxCell>
        <mxCell id="5rTCIby2H79D7bc2Stlg-27" style="edgeStyle=orthogonalEdgeStyle;rounded=0;orthogonalLoop=1;jettySize=auto;html=1;entryX=0.5;entryY=0;entryDx=0;entryDy=0;" edge="1" parent="1" source="5rTCIby2H79D7bc2Stlg-19" target="5rTCIby2H79D7bc2Stlg-16">
          <mxGeometry relative="1" as="geometry" />
        </mxCell>
        <mxCell id="5rTCIby2H79D7bc2Stlg-30" style="edgeStyle=orthogonalEdgeStyle;rounded=0;orthogonalLoop=1;jettySize=auto;html=1;" edge="1" parent="1" source="5rTCIby2H79D7bc2Stlg-19" target="5rTCIby2H79D7bc2Stlg-20">
          <mxGeometry relative="1" as="geometry" />
        </mxCell>
        <mxCell id="5rTCIby2H79D7bc2Stlg-19" value="选择重试" style="rhombus;whiteSpace=wrap;html=1;fillColor=#f8cecc;strokeColor=#b85450;" vertex="1" parent="1">
          <mxGeometry x="230" y="430" width="130" height="50" as="geometry" />
        </mxCell>
        <mxCell id="5rTCIby2H79D7bc2Stlg-39" style="edgeStyle=orthogonalEdgeStyle;rounded=0;orthogonalLoop=1;jettySize=auto;html=1;entryX=1;entryY=0.5;entryDx=0;entryDy=0;" edge="1" parent="1" source="5rTCIby2H79D7bc2Stlg-20" target="5rTCIby2H79D7bc2Stlg-37">
          <mxGeometry relative="1" as="geometry">
            <Array as="points">
              <mxPoint x="295" y="640" />
              <mxPoint x="730" y="640" />
              <mxPoint x="730" y="305" />
            </Array>
          </mxGeometry>
        </mxCell>
        <mxCell id="5rTCIby2H79D7bc2Stlg-20" value="重试≤5次" style="rhombus;whiteSpace=wrap;html=1;fillColor=#f8cecc;strokeColor=#b85450;" vertex="1" parent="1">
          <mxGeometry x="230" y="510" width="130" height="50" as="geometry" />
        </mxCell>
        <mxCell id="5rTCIby2H79D7bc2Stlg-37" value="请求EWT&lt;br&gt;成功" style="rhombus;whiteSpace=wrap;html=1;fillColor=#d5e8d4;strokeColor=#82b366;" vertex="1" parent="1">
          <mxGeometry x="417.5" y="280" width="115" height="50" as="geometry" />
        </mxCell>
        <mxCell id="5rTCIby2H79D7bc2Stlg-41" value="结束" style="ellipse;whiteSpace=wrap;html=1;fillColor=#000000;fontColor=#FFFFFF;" vertex="1" parent="1">
          <mxGeometry x="437.5" y="570" width="80" height="40" as="geometry" />
        </mxCell>
        <mxCell id="5rTCIby2H79D7bc2Stlg-43" value="&lt;font color=&quot;#000000&quot;&gt;YES&lt;/font&gt;" style="text;html=1;strokeColor=none;fillColor=none;align=center;verticalAlign=middle;whiteSpace=wrap;rounded=0;fontColor=#FFFFFF;" vertex="1" parent="1">
          <mxGeometry x="275" y="600" width="40" height="20" as="geometry" />
        </mxCell>
        <mxCell id="5rTCIby2H79D7bc2Stlg-44" value="&lt;font color=&quot;#000000&quot;&gt;NO&lt;/font&gt;" style="text;html=1;strokeColor=none;fillColor=none;align=center;verticalAlign=middle;whiteSpace=wrap;rounded=0;fontColor=#FFFFFF;" vertex="1" parent="1">
          <mxGeometry x="400" y="430" width="40" height="20" as="geometry" />
        </mxCell>
        <mxCell id="5rTCIby2H79D7bc2Stlg-46" value="&lt;font color=&quot;#000000&quot;&gt;YES&lt;/font&gt;" style="text;html=1;strokeColor=none;fillColor=none;align=center;verticalAlign=middle;whiteSpace=wrap;rounded=0;fontColor=#FFFFFF;" vertex="1" parent="1">
          <mxGeometry x="295" y="480" width="40" height="20" as="geometry" />
        </mxCell>
      </root>
    </mxGraphModel>
  </diagram>
</mxfile>
